<svg xmlns="http://www.w3.org/2000/svg" viewBox="0 0 860 620" width="860" height="620" role="img" aria-label="Downhole, Completion &amp; OCTG">
<defs><linearGradient id="bg" x1="0%" y1="0%" x2="0%" y2="100%"><stop offset="0%" stop-color="#18253F" stop-opacity="1"/><stop offset="100%" stop-color="#070C16" stop-opacity="1"/></linearGradient><radialGradient id="glow" cx="50%" cy="50%" r="60%"><stop offset="0%" stop-color="#D9A22B" stop-opacity="0.20"/><stop offset="70%" stop-color="#D9A22B" stop-opacity="0.03"/><stop offset="100%" stop-color="#D9A22B" stop-opacity="0"/></radialGradient><pattern id="hatch" width="7" height="7" patternUnits="userSpaceOnUse" patternTransform="rotate(45)"><line x1="0" y1="0" x2="0" y2="7" stroke="#41506B" stroke-width="1" opacity="0.50"/></pattern><pattern id="g" width="32" height="32" patternUnits="userSpaceOnUse"><path d="M32 0 H0 V32" fill="none" stroke="#FFFFFF" stroke-width="1" opacity="0.050"/></pattern></defs>
<style>
  .flow { stroke-dasharray: 9 13; animation: dashmove 1.9s linear infinite; }
  .flow-slow { stroke-dasharray: 5 11; animation: dashmove 3.4s linear infinite; }
  .flow-rev { animation-direction: reverse; }
  @keyframes dashmove { to { stroke-dashoffset: -44; } }
  .pulse { animation: pulse 2.8s ease-in-out infinite; transform-origin: center; }
  .pulse-b { animation-delay: .9s; }
  .pulse-c { animation-delay: 1.8s; }
  @keyframes pulse { 0%,100% { opacity:.25; r:4 } 50% { opacity:1; r:7 } }
  .draw { stroke-dasharray: 900; stroke-dashoffset: 900;
          animation: draw 3.4s cubic-bezier(.6,0,.2,1) forwards; }
  @keyframes draw { to { stroke-dashoffset: 0; } }
  .rot { animation: rot 14s linear infinite; transform-origin: center; }
  @keyframes rot { to { transform: rotate(360deg); } }
  .bob { animation: bob 4.5s ease-in-out infinite; }
  @keyframes bob { 0%,100% { transform: translateY(0) } 50% { transform: translateY(-9px) } }
  @media (prefers-reduced-motion: reduce) {
    .flow, .flow-slow, .pulse, .draw, .rot, .bob { animation: none; }
    .draw { stroke-dashoffset: 0; }
  }
</style>
<rect x="0.0" y="0.0" width="860.0" height="620.0" rx="0.0" fill="url(#bg)" opacity="1.00"/><rect x="0.0" y="0.0" width="860.0" height="620.0" rx="0.0" fill="url(#g)" opacity="1.00"/><ellipse cx="430.0" cy="285.2" rx="330.0" ry="250.0" fill="url(#glow)" opacity="1.00"/><rect x="246.0" y="96.0" width="34.0" height="404.0" rx="0.0" fill="url(#hatch)" stroke="#41506B" stroke-width="1.40" opacity="1.00"/><path d="M314.0 96.0 L314.0 500.0" stroke="#5A6B88" stroke-width="1.20" stroke-linecap="round" fill="none" opacity="0.70"/><rect x="580.0" y="96.0" width="34.0" height="404.0" rx="0.0" fill="url(#hatch)" stroke="#41506B" stroke-width="1.40" opacity="1.00"/><path d="M546.0 96.0 L546.0 500.0" stroke="#5A6B88" stroke-width="1.20" stroke-linecap="round" fill="none" opacity="0.70"/><text x="626.0" y="116.0" font-family="Oswald, 'Arial Narrow', Arial, sans-serif" font-size="12" font-weight="600" fill="#D9A22B" text-anchor="start" letter-spacing="1.6" opacity="1.00">CASING</text><text x="198.0" y="116.0" font-family="Oswald, 'Arial Narrow', Arial, sans-serif" font-size="12" font-weight="600" fill="#D9A22B" text-anchor="start" letter-spacing="1.6" opacity="1.00">CEMENT</text><rect x="400.0" y="96.0" width="60.0" height="404.0" rx="0.0" fill="#22314F" stroke="#8FA1BC" stroke-width="1.50" opacity="1.00"/><path d="M430.0 70.0 L430.0 526.0" stroke="#D9A22B" stroke-width="1.00" stroke-linecap="round" fill="none" opacity="0.55" stroke-dasharray="3 7"/><path d="M400 168 L318 190 L318 226 L400 212 Z" fill="#22314F" stroke="#DCE5F1" stroke-width="1.40" stroke-linejoin="round" stroke-linecap="round" opacity="1.00"/><path d="M460 168 L542 190 L542 226 L460 212 Z" fill="#22314F" stroke="#DCE5F1" stroke-width="1.40" stroke-linejoin="round" stroke-linecap="round" opacity="1.00"/><path d="M384.0 176.0 L384.0 200.0" stroke="#F2C85C" stroke-width="1.60" stroke-linecap="round" fill="none" opacity="0.85"/><path d="M476.0 176.0 L476.0 200.0" stroke="#F2C85C" stroke-width="1.60" stroke-linecap="round" fill="none" opacity="0.85"/><path d="M374.0 179.4 L374.0 203.4" stroke="#F2C85C" stroke-width="1.60" stroke-linecap="round" fill="none" opacity="0.85"/><path d="M486.0 179.4 L486.0 203.4" stroke="#F2C85C" stroke-width="1.60" stroke-linecap="round" fill="none" opacity="0.85"/><path d="M364.0 182.8 L364.0 206.8" stroke="#F2C85C" stroke-width="1.60" stroke-linecap="round" fill="none" opacity="0.85"/><path d="M496.0 182.8 L496.0 206.8" stroke="#F2C85C" stroke-width="1.60" stroke-linecap="round" fill="none" opacity="0.85"/><path d="M354.0 186.2 L354.0 210.2" stroke="#F2C85C" stroke-width="1.60" stroke-linecap="round" fill="none" opacity="0.85"/><path d="M506.0 186.2 L506.0 210.2" stroke="#F2C85C" stroke-width="1.60" stroke-linecap="round" fill="none" opacity="0.85"/><path d="M344.0 189.6 L344.0 213.6" stroke="#F2C85C" stroke-width="1.60" stroke-linecap="round" fill="none" opacity="0.85"/><path d="M516.0 189.6 L516.0 213.6" stroke="#F2C85C" stroke-width="1.60" stroke-linecap="round" fill="none" opacity="0.85"/><path d="M334.0 193.0 L334.0 217.0" stroke="#F2C85C" stroke-width="1.60" stroke-linecap="round" fill="none" opacity="0.85"/><path d="M526.0 193.0 L526.0 217.0" stroke="#F2C85C" stroke-width="1.60" stroke-linecap="round" fill="none" opacity="0.85"/><path d="M324.0 196.4 L324.0 220.4" stroke="#F2C85C" stroke-width="1.60" stroke-linecap="round" fill="none" opacity="0.85"/><path d="M536.0 196.4 L536.0 220.4" stroke="#F2C85C" stroke-width="1.60" stroke-linecap="round" fill="none" opacity="0.85"/><path d="M400 248 C312 254 312 286 400 292 L460 292 C548 286 548 254 460 248 Z" fill="#1B1F27" stroke="#5A6B88" stroke-width="1.30" stroke-linejoin="round" stroke-linecap="round" opacity="1.00"/><rect x="312.0" y="292.0" width="236.0" height="8.0" rx="0.0" fill="#D9A22B" opacity="0.90"/><path d="M400 300 C312 306 312 338 400 344 L460 344 C548 338 548 306 460 300 Z" fill="#1B1F27" stroke="#5A6B88" stroke-width="1.30" stroke-linejoin="round" stroke-linecap="round" opacity="1.00"/><rect x="312.0" y="344.0" width="236.0" height="8.0" rx="0.0" fill="#D9A22B" opacity="0.90"/><path d="M400 352 C312 358 312 390 400 396 L460 396 C548 390 548 358 460 352 Z" fill="#1B1F27" stroke="#5A6B88" stroke-width="1.30" stroke-linejoin="round" stroke-linecap="round" opacity="1.00"/><rect x="312.0" y="396.0" width="236.0" height="8.0" rx="0.0" fill="#D9A22B" opacity="0.90"/><path d="M400 452 L318 430 L318 394 L400 408 Z" fill="#22314F" stroke="#DCE5F1" stroke-width="1.40" stroke-linejoin="round" stroke-linecap="round" opacity="1.00"/><path d="M460 452 L542 430 L542 394 L460 408 Z" fill="#22314F" stroke="#DCE5F1" stroke-width="1.40" stroke-linejoin="round" stroke-linecap="round" opacity="1.00"/><path d="M400 500 L460 500 L448 538 L412 538 Z" fill="#22314F" stroke="#8FA1BC" stroke-width="1.40" stroke-linejoin="round" stroke-linecap="round" opacity="1.00"/><path d="M312 452 L254 442" fill="none" stroke="#C4562C" stroke-width="2.40" stroke-linejoin="round" stroke-linecap="round" opacity="0.85"/><circle cx="254.0" cy="442.0" r="3.2" fill="#C4562C" opacity="1.00"/><path d="M548 452 L606 442" fill="none" stroke="#C4562C" stroke-width="2.40" stroke-linejoin="round" stroke-linecap="round" opacity="0.85"/><circle cx="606.0" cy="442.0" r="3.2" fill="#C4562C" opacity="1.00"/><path d="M312 474 L254 464" fill="none" stroke="#C4562C" stroke-width="2.40" stroke-linejoin="round" stroke-linecap="round" opacity="0.85"/><circle cx="254.0" cy="464.0" r="3.2" fill="#C4562C" opacity="1.00"/><path d="M548 474 L606 464" fill="none" stroke="#C4562C" stroke-width="2.40" stroke-linejoin="round" stroke-linecap="round" opacity="0.85"/><circle cx="606.0" cy="464.0" r="3.2" fill="#C4562C" opacity="1.00"/><path d="M312 496 L254 486" fill="none" stroke="#C4562C" stroke-width="2.40" stroke-linejoin="round" stroke-linecap="round" opacity="0.85"/><circle cx="254.0" cy="486.0" r="3.2" fill="#C4562C" opacity="1.00"/><path d="M548 496 L606 486" fill="none" stroke="#C4562C" stroke-width="2.40" stroke-linejoin="round" stroke-linecap="round" opacity="0.85"/><circle cx="606.0" cy="486.0" r="3.2" fill="#C4562C" opacity="1.00"/><path d="M312 518 L254 508" fill="none" stroke="#C4562C" stroke-width="2.40" stroke-linejoin="round" stroke-linecap="round" opacity="0.85"/><circle cx="254.0" cy="508.0" r="3.2" fill="#C4562C" opacity="1.00"/><path d="M548 518 L606 508" fill="none" stroke="#C4562C" stroke-width="2.40" stroke-linejoin="round" stroke-linecap="round" opacity="0.85"/><circle cx="606.0" cy="508.0" r="3.2" fill="#C4562C" opacity="1.00"/><path d="M430 520 L430 150" fill="none" stroke="#F2C85C" stroke-width="3.00" stroke-linejoin="round" stroke-linecap="round" opacity="0.95" class="flow"/><path d="M548.0 270.0 L640.0 246.0" stroke="#D9A22B" stroke-width="1.00" stroke-linecap="round" fill="none" opacity="0.75"/><circle cx="548.0" cy="270.0" r="2.6" fill="#D9A22B" opacity="1.00"/><text x="648.0" y="250.0" font-family="Oswald, 'Arial Narrow', Arial, sans-serif" font-size="11" font-weight="500" fill="#D9A22B" text-anchor="start" letter-spacing="1.2" opacity="1.00">ELEMENT STACK</text><path d="M542.0 186.0 L640.0 158.0" stroke="#D9A22B" stroke-width="1.00" stroke-linecap="round" fill="none" opacity="0.75"/><circle cx="542.0" cy="186.0" r="2.6" fill="#D9A22B" opacity="1.00"/><text x="648.0" y="162.0" font-family="Oswald, 'Arial Narrow', Arial, sans-serif" font-size="11" font-weight="500" fill="#D9A22B" text-anchor="start" letter-spacing="1.2" opacity="1.00">SLIP ASSEMBLY</text><path d="M312.0 466.0 L190.0 500.0" stroke="#D9A22B" stroke-width="1.00" stroke-linecap="round" fill="none" opacity="0.75"/><circle cx="312.0" cy="466.0" r="2.6" fill="#D9A22B" opacity="1.00"/><text x="96.0" y="504.0" font-family="Oswald, 'Arial Narrow', Arial, sans-serif" font-size="11" font-weight="500" fill="#D9A22B" text-anchor="start" letter-spacing="1.2" opacity="1.00">PERFORATIONS</text><path d="M280.0 566.0 L580.0 566.0" stroke="#5A6B88" stroke-width="1.00" stroke-linecap="round" fill="none" opacity="1.00"/><path d="M280.0 561.0 L280.0 571.0" stroke="#5A6B88" stroke-width="1.00" stroke-linecap="round" fill="none" opacity="1.00"/><path d="M580.0 561.0 L580.0 571.0" stroke="#5A6B88" stroke-width="1.00" stroke-linecap="round" fill="none" opacity="1.00"/><rect x="406.0" y="557.0" width="48.0" height="18.0" rx="0.0" fill="#101A2E" opacity="1.00"/><text x="430.0" y="570.0" font-family="Oswald, 'Arial Narrow', Arial, sans-serif" font-size="11" font-weight="500" fill="#5A6B88" text-anchor="middle" letter-spacing="0.8" opacity="1.00">2–20 in</text><text x="96.0" y="150.0" font-family="Oswald, 'Arial Narrow', Arial, sans-serif" font-size="15" font-weight="600" fill="#DCE5F1" text-anchor="start" letter-spacing="2.0" opacity="1.00">API 11D1</text><text x="96.0" y="172.0" font-family="Oswald, 'Arial Narrow', Arial, sans-serif" font-size="12" font-weight="500" fill="#5A6B88" text-anchor="start" letter-spacing="1.4" opacity="1.00">15,000 psi · 400°F</text><path d="M24.0 24.0 L50.0 24.0" stroke="#D9A22B" stroke-width="1.60" stroke-linecap="round" fill="none" opacity="0.70"/><path d="M24.0 24.0 L24.0 50.0" stroke="#D9A22B" stroke-width="1.60" stroke-linecap="round" fill="none" opacity="0.70"/><path d="M836.0 24.0 L810.0 24.0" stroke="#D9A22B" stroke-width="1.60" stroke-linecap="round" fill="none" opacity="0.70"/><path d="M836.0 24.0 L836.0 50.0" stroke="#D9A22B" stroke-width="1.60" stroke-linecap="round" fill="none" opacity="0.70"/><path d="M24.0 596.0 L50.0 596.0" stroke="#D9A22B" stroke-width="1.60" stroke-linecap="round" fill="none" opacity="0.70"/><path d="M24.0 596.0 L24.0 570.0" stroke="#D9A22B" stroke-width="1.60" stroke-linecap="round" fill="none" opacity="0.70"/><path d="M836.0 596.0 L810.0 596.0" stroke="#D9A22B" stroke-width="1.60" stroke-linecap="round" fill="none" opacity="0.70"/><path d="M836.0 596.0 L836.0 570.0" stroke="#D9A22B" stroke-width="1.60" stroke-linecap="round" fill="none" opacity="0.70"/><text x="30.0" y="578.0" font-family="Oswald, 'Arial Narrow', Arial, sans-serif" font-size="13" font-weight="600" fill="#D9A22B" text-anchor="start" letter-spacing="1.6" opacity="1.00">DOWNHOLE, COMPLETION &amp; OCTG</text><text x="830.0" y="578.0" font-family="Oswald, 'Arial Narrow', Arial, sans-serif" font-size="12" font-weight="500" fill="#5A6B88" text-anchor="end" letter-spacing="2.2" opacity="1.00">WF-CAT-02</text>
</svg>
